<!DOCTYPE svg PUBLIC "-//W3C//DTD SVG 1.1//EN" "http://www.w3.org/Graphics/SVG/1.1/DTD/svg11.dtd">
<!-- Uploaded to: SVG Repo, www.svgrepo.com, Transformed by: SVG Repo Mixer Tools -->
<svg height="800px" width="800px" version="1.1" id="_x32_" xmlns="http://www.w3.org/2000/svg" xmlns:xlink="http://www.w3.org/1999/xlink" viewBox="-51.2 -51.2 614.40 614.40" xml:space="preserve" fill="#5f6fff" stroke="#5f6fff">
<g id="SVGRepo_bgCarrier" stroke-width="0">
<rect x="-51.2" y="-51.2" width="614.40" height="614.40" rx="307.2" fill="#fff5f6fff" strokewidth="0"/>
</g>
<g id="SVGRepo_tracerCarrier" stroke-linecap="round" stroke-linejoin="round"/>
<g id="SVGRepo_iconCarrier"> <style type="text/css"> .st0{fill:#fff;} </style> <g> <path class="st0" d="M254.962,145.192c-38.209,36.682-47.168,80.782-47.168,80.782s-78.16,49.137-47.591,157.646h91.854 l13.549,102.607C267.553,500.985,280.129,512,295.004,512h5.189c16.379,0,29.656-13.273,29.656-29.652V383.62h12.053 c0,0,0-189.14,0-233.837C341.902,114.63,290.042,111.517,254.962,145.192z"/> <path class="st0" d="M305.398,0c-29.542,0-53.493,23.955-53.493,53.493c0,29.546,23.951,53.493,53.493,53.493 c29.542,0,53.49-23.947,53.49-53.493C358.888,23.955,334.94,0,305.398,0z"/> </g> </g>
</svg>